<mxfile host="app.diagrams.net" agent="Mozilla/5.0 (Windows NT 10.0; Win64; x64) AppleWebKit/537.36 (KHTML, like Gecko) Chrome/134.0.0.0 Safari/537.36 Edg/134.0.0.0" version="26.1.2">
  <diagram name="第 1 页" id="ufeBmRcnPeDDnvmJvSxq">
    <mxGraphModel dx="652" dy="391" grid="1" gridSize="10" guides="1" tooltips="1" connect="1" arrows="1" fold="1" page="1" pageScale="1" pageWidth="827" pageHeight="1169" math="0" shadow="0">
      <root>
        <mxCell id="0" />
        <mxCell id="1" parent="0" />
        <mxCell id="piFu3rO19TxPugWEwf-z-2" value="" style="rhombus;whiteSpace=wrap;html=1;" vertex="1" parent="1">
          <mxGeometry x="100" y="360" width="140" height="80" as="geometry" />
        </mxCell>
        <mxCell id="piFu3rO19TxPugWEwf-z-3" value="" style="ellipse;whiteSpace=wrap;html=1;" vertex="1" parent="1">
          <mxGeometry x="70" y="240" width="80" height="80" as="geometry" />
        </mxCell>
        <mxCell id="piFu3rO19TxPugWEwf-z-4" value="" style="ellipse;whiteSpace=wrap;html=1;aspect=fixed;" vertex="1" parent="1">
          <mxGeometry x="200" y="240" width="80" height="80" as="geometry" />
        </mxCell>
        <mxCell id="piFu3rO19TxPugWEwf-z-6" value="" style="endArrow=classic;html=1;rounded=0;exitX=0;exitY=0;exitDx=0;exitDy=0;entryX=1;entryY=0;entryDx=0;entryDy=0;" edge="1" parent="1" source="piFu3rO19TxPugWEwf-z-4" target="piFu3rO19TxPugWEwf-z-3">
          <mxGeometry width="50" height="50" relative="1" as="geometry">
            <mxPoint x="209.3599999999999" y="249.99999999999997" as="sourcePoint" />
            <mxPoint x="140.07999999999993" y="249.99999999999997" as="targetPoint" />
            <Array as="points" />
          </mxGeometry>
        </mxCell>
        <mxCell id="piFu3rO19TxPugWEwf-z-7" value="" style="endArrow=classic;html=1;rounded=0;exitX=1;exitY=1;exitDx=0;exitDy=0;entryX=0;entryY=1;entryDx=0;entryDy=0;" edge="1" parent="1" source="piFu3rO19TxPugWEwf-z-3" target="piFu3rO19TxPugWEwf-z-4">
          <mxGeometry width="50" height="50" relative="1" as="geometry">
            <mxPoint x="290" y="410" as="sourcePoint" />
            <mxPoint x="340" y="360" as="targetPoint" />
          </mxGeometry>
        </mxCell>
      </root>
    </mxGraphModel>
  </diagram>
</mxfile>
